/* XPM */
static char *_5714_5a61fa4732adcde112eef34c66fba47c159601b0e1d2413103bc609db2e8cba4[] = {
/* columns rows colors chars-per-pixel */
"128 128 28 1 ",
"  c #A7A8AC",
". c #AAABAF",
"X c #ADAEB2",
"o c #AFB1B5",
"O c #B2B3B7",
"+ c #B5B6BA",
"@ c #B8B7BC",
"# c #B6B9BD",
"$ c #B9BABE",
"% c #C0C0BF",
"& c #BDBEC2",
"* c #C0BFC4",
"= c #BEC1C4",
"- c #C1C2C6",
"; c #C4C5C9",
": c #C8C7CC",
"> c #C7C8CC",
", c #C9CACE",
"< c #CCCDD1",
"1 c #D0CFD4",
"2 c #CFD0D4",
"3 c #D1D2D6",
"4 c #D4D5D9",
"5 c #D8D7DC",
"6 c #D7D8DB",
"7 c #D9DADD",
"8 c #DDDEE0",
"9 c #E1E2E4",
/* pixels */
";>,;;>>><;&&-&-,=&&-&&=&-&&<:&++&&&=*&&:--:<><;><:>;:>-=-:;;><><>><>;<<&&&1:::;;;$=-3,::,:%<3%33%3336766<:;;$%=-&&;;;;;;;******%",
";,<;%;>;:;&&-&---*&=&&&--&&&&&+O&&&*:*=>&=-=-<=;>>;<<<>>:;-;>><1<->>=<**&&;:;:1;%%=&-;%1,::37%%367663763,;;;$==%$&-&;;--&&@@@*@@",
"$;<;-;;-&&--&&------=-=&-&&&&##&&&**-;;*--*->;->>;-;::>:;&=;;>;::>-;>-=&&****;;;;=%%--,16%<1%3%3688736%7;%;>-----&$$--&$$*$@@@@@",
";;,;-$--&#-&&-;&-;-&&&:--&&&&&#&&#&&&=**==->>>--<:=-:;><&&*;;;><>=-=*;=-***;:;:;===>:11<1111316%6776%66%;->-;;-;;--&---&&&&O@+@%",
",;>;-;-$&$-&--;-&-:-&=-;;;:&##*&&+&&&&=#&=-<:>><<:=;<>>>=&=--;><<>-=>>>1:*;;*:::%%%%%<,3%7766333677378%%-;--&;;--;;&---$$**@@@@%",
"<>--$-;$&--$$&;-&-=--&&&=;::&&&&#&*&X&*&*=;:>-*:::;;--==>:&*-===**;;:;><:;@*****<%,%,>,366%6667367676%3%$=$-;;--;;;--;;+@@@@%@@@",
":;;----;&&-&--;;;---&&-;:;-&&&-&o&&&&&#==-*>>>>;><:=*==#===--=-;-*=*->;-**@*<:::2,%%,,,367766776643232<%=-&;:,-&=-&$-&=$*@$$@@$%",
";%--=-----$&&--;--:=--;:=&&*&&&&&+&&&#&==>;--;:<;;:*===#=*&-=;<=->-;;-*;;**:;11<32,%33<67776677764322%,<;:&=;;-=&-&&&*-$$@*$@*$%",
":>%%-=&&$&--&&-;-&&-;=;:-&&:-&=&&&=&#&==#=#=#>>2;=--;*&=;-=>;>;=*==*==;;*@&&:1<<<%<<2379666646766732>;,,;>-;>;-=--&:--&&**&@@*&@",
":%-%$---&=&&-&-&&-&&-=;>-=&&&&-&&&=#&##&=###=>>=:>->>=*=**=;;>>;:=-=====***=:<;:>%222338643666673362;<<,>>>,,>;;&;&&*&***@***@@*",
";%=$$&-$----&--&&&--;;-=;-&&#&&&======#&##=>>>>>=;*==*&&;&**=;==;-*-===;&**=-<<<>>>68247663468677332;><,,,,,,,,-=<-#&&&&@@&**@@@",
";--=--;-;>;;--;&&:;==:,;-:=-&&&&=&&=##&&=>==>>>>*==*&=&&;-;=;;;====;=-;;+*:==<-:>><,487438646876773,,>><,<2<<,,--:<&&&*&@@*@@@@@",
"-%----->>--&-&=-&-;-;;><:;;;-&&:;==#oo#==>>>>>>>-;**=*&=&=;&;;;===*-;;=<-*>;>1>:,%333773<3366867732<%,><<,>>>>,;::;>-*-;*@&**&o@",
";->--=->;-------&=-:;,>>=-;&=-;-===#===>=>><2>>==*#&=*&&&===;====&--;=;====-><->3%>>,<8663337763623>%%=;,,;,,,>><,,>:*&-*&@@&O@@",
"%%;;-->>-;;;&--&&-;;;:>>>>;;<,-->>>====>=>>>>>=>-==***=====;======-;=;==*--;>>>;,,,,>,6663333333763,,>%;>,2,>-;,&=<3<;&&**@&&@O@",
"-;>;>>,>;;;-->:&&=<>,;;,:>::<;-;==<====>>=>===>=====*;*=*;;==========;=&;:;><<<:,%,%,,,6,3633663633<,>>;;->>,,,>:;3<<;&&&***@@O@",
"--;<>>>>>;=;;<<:=;::>>>;;:>=;;=:=>2>>>>>>>>=============>==========>==>==>>2<>>>=>2>=>4233633666642,:=;--;<<>,<,;;3<<>-&&=&#o&++",
"&&&->::<;-;;->==;>:>>>>::<<;:-&&==>>=>>>>===>>===========>=>===#====>>>=#=>>>><===>>>=246446776676<<;=-==:<;=<<<>:>;><<&&&&&&X++",
"&--&;>>&:<-;>;&:>>>;=:><;>>>>:-;==>>=>>====>>>==#==>========>===>;===>>>=><<<<<<=====<2246667633643,>><>;:=#-<::>>>;-;:&&-;&+O@*",
"$--&----;:=;>;<><;;;;><:>;><;;;<>>>>>=============>>>===>>=>==>=;;=====>==>>><22>>#=>><<3663763664<:<<>,--:&=;--;=:;&=>&*&&O.@@&",
"$%--&&&&&&-;;:>><<;;;;>>;><>-;;==>=>>>>>>>>>##===========>#>====>======>=>>>><222>=>>><>2287642673,><,;;:;;-=;&=&=+&;=&&@&#@O+O&",
";;-;;&:=&=:&-:&;;<;;=&:;&=:;;>><>>>>>>===>>==>=>>=================>>===>><>>>>>2222222><<266643662>>=;>:>;;&=:--&&&+&&&-&O@&++@$",
";;;-;==-&=;&&&&;-;;-;-;-;--==-:>==>=>>>><<=>=======>==>==>==>>========#>><>>2>2<2422<2><2<6876263>>;<<;,;&&&=;&=&&&&&-&&&&&@&@&$",
",;;;;>:=;&:-;&--&&=-:;;;;;;-;:=&=>>>>>>====>=======>>==>===>>>>========<>>=<22224422<>>><<88=3461>>;;:&=:&&=;,&&;&O+&-&&&&&&@$@&",
";,,%,,%-;;-&&-&=&;-&<<-=;-;--;;&====>==>===>=>=>>>=>>=====>>>>>>>=====>>>>>><22<4222=6==4=643424<,;;;---=&&&,;;&;-@#*&&$&&&&&#&&",
";;,%>->-===&&&&-;:&&-=&&&&;>:;&&==>==>==========>>>22>>>>=>====>=====>>>>2>2<2<24244776337776623,>;><-$;=&&;--;<*;**&$*&$*&-&&@&",
",<<<;--;=&&&&&&=&;&&+#&&&&&->::=====>==>========>>>>>>>>>>>>>>=>>>>=>>=>>2><2<2424444==446822222,-;,,;--&-;;=;;:-**;&&*$&&&*$&&@",
">,,2>;=%&&&&&>&&-*-&+#&&&&-*=&=&=>>>>>>>>>============>>>>=>=>>>><>>><><22<<2<22244244746=3622<2,;><>;;&&&;;:-=&;&&**@***&*&@-@@",
"=234>>=&&&&&&&&;-&&&&+&&&&&&&&&;==>>=>>>>==>=====>>>>=>=>>=>>>>=#><><<<><>2<22<>2266=34=3443742<,;,,<,;-;;;::**;*&&&***@*::***&-",
"23======&&==&&&&&;;&&;&&-&;;=;;<>>>===>>>>==========>>>>=>>>>>=>>>>><<<>22><<<<><472248=<<33322>,,:;,,;-,:=--;-&*@*;*,*******$**",
"32===&#=&&&&+&-;&-;&&:=;-&*--&><>>>>=>>>>>=====>=>======>==>=>>>>=><=><2<<<<><2<244446642373333<<<,,:,,;>=;;:-;**&@*$*****$@%%-:",
"<=2=====&&&&&&-&&&&&&&&:&;-&&;,>=>>=>>>>==>>===>>===>>>=>>==>=>2>=>2<<<<>><>>2>><4844677666662<2<><;<,;<<;,::;:;***&*****:*@&*;;",
"<2><=<===,============#===2===>>>=>==<=2===<====;===>====>>>=>>><,>,>>33<>>><3322366686698463<2<<<<,><;,>&<>=>,*>&&&*1********<*",
"=3=<=2====<==%========#=>=====>>>>>==<<=<<3========;>>=>>><>>>>>>><,;>2,><><2363%2%8%3634774<2<<,;<<<>,<<&>>>;<>&,&&******<**<*:",
">333>==========,=#===#==>>=======<>>=<3==<=22=<===>==<>;>===>><>>;>>;>>><,232262322%33364662,<,,=,<<>><,<<>=<>;,<*&&**&&&***::*:",
",=<<<==%=,==,>=======#===##=#=>=><>=<<=<===<===>===>=><;>>>>>>>>>;>;,222>>222232%<336%264443<3,>:,<<<<<<21,>1>>&**&***&<**1*,1::",
",><<,>>>>;=;>>=====>====#o#=##===<22===<<2=<2<=>======>>=<>>>>>>,2<<,2<3,242<<><42<32%4732343,,,2,,><<<<1<><1<<>***1***1;&;*&:;,",
">,>,,>>>>;;;=>>>=>======######=============3>======>>=>==>>>>><>,>223323<233<>247323<24643323;2,=33333332><<<>;><****1**>;>;;<;<",
"222,>>>>;;;;;>>%==>======##=#===>>=======<=====<======>=>>>>>>>>2>22343<,3<,32%37633<443733,,;;-&><344332<<121;>:*<<<*11<,,;><,<",
"3<,%>2<%;;>;>,>=>>====##==#==#=========<=<<=<<==;>2<>;>=>>><>>>>,<244<3<<33<<2><6333<43<63,%-3,=>=>>3433<><<<>>,:**1*1*1<,,;,,>3",
",2<-;:<,>>>>;;;;>><>====###==#==&&&&&>*>=<2=2<=<><<><<>=>>><><>>>,,4232<6663,2>,3333362<633,;>>,>;>;48,4;;<,,>><,;;,,<:<<,,;,,:,",
">,<---,;>>>;%=;>>>=>#=======###=<&<<<<&&2====2<=><><>><>>>>>222<,2232222%3333,%22232332<33,,;;>,;;&*<,,1>>>,1,=<;&;,,<<<,;;;<;><",
";,,--;,;;;;;==%;==#======#===##=&&&&&&>&<==<2===>=><><>>2>>2444222242242%36%%2232263333342>;;,<<;&;>,,,3,<<;>,;>;&&<<<,,;*>,>,><",
",,,,<,,;;>;=>;====##==========#=&&&&&<&&=&====<=<==<>>>>2<>44242<2222222%63366662>,663634<<>;,<,>><;&;;<,41<>1<<;;;-<<<;,,,<,,<<",
",<:<4<,,;;-&-;-;>=#=====#<===#=#&&&&&&&&&&&>&&,==>=>>>><2<>422222322322<37%%67223,2333662>,<=2<<,,&*3&;,<41112>=&*,;,<<,<:,,<,<,",
",<,<;<<<;;;=--->=======>=====##=&&&>>&&&&&&&,===>><<<>2422444224222222223%33762<<<3266374<>,2<=2>;&;,&&,2<=>1<1,;,,,;,<<<<<<<<<:",
",,,<>,,>;;;>>;>,>==>===>#===##==&&*><&&<&&=>,=2,==>222<22442422222222222333<663322226<<64>&>=222,<3,&&&,1,=><<>=*;<<,<,<,;:<1<<<",
",--,>;;;;>>-->;>>>=====>===#=#==*&&&&>&=&&&&&&><><>>>2>422222224222222223333332<22<33<3611=,>2=<,,<>;;,;&,<<><==;;>,<<;:;-,,:;;,",
"3,<2<>>,,:<<,,:,,<>=;-;==>>=##==&&>*&=&&=#=====>><><<>2222222222222233<<332<2<<<<11152352=<<=32=->,;>$$>:%6%%%,:;*;<32%%<2<<<;>,",
"<>%,,>>,,,2<;<2<>><>,;=========>>>*&&=====>>=<==>>>>>>><222222444222<22223222,23444;14552<=<<<22>,,-;->><<6<>%,:;;;:322<<%,3<,<,",
",<<<>>,>;,,;=;<<<<<,>;;>==>=>>>>>>&<====#====>>=>>>>>>><<<<222444222<2<<<<<42>888<3,23423<222<223,;;->;;3<<<>%:><,:,%3<<,,%,%>%,",
"<%<,>>>>:<,<,,>2><,;==,22222>>>>&*>&&=====####=>==>>>><>><222<2222<>><<<,<><><2>,,<,<<2<322322<<,,;;;->;>3::%>31333,<3%4,,<%%,%>",
"<;>><;>>;;;;;,,<>;;==,>>>2>>222==========#=========>>>><<<>><222222<<<3<<,,><>>>,,,>,<<<2<22<3221<,-;>3,%<<>,1:%<3,,<3<%2,,>;>>-",
",;-><%%;,,,;;,,<>>>=>,<>>>====2==<=========>====>>>><<<<2<<<222444<24<3<>;;>2<>4<&<233342<2<<323334>-%<<<::<,,<131><3<%<32,2<,<<",
"-;;>,;-;;;,;;,,<><,=>=2=>>>=>>2=========#=>>=====>==><2<2<24<<222<242>><>,<>,<<><,<;<32222<<23<2443&$$%3<,<44,32,<3<33333<,<,,<,",
"-;%;,%;,;-,;,:<,><,><>2=>>>><>=22============>>>>>=>><<<2444><2<,444<<>>,,,;>>><<<,,>2<,2<<22<2243<&%;%%:<,,2,;:3<<1<<333<22,>>3",
">:%:,%->;->>,>,,<;;<;><<,<=2=2==>=====>=>>>>=>=>>22<>>22>4424244234332321132>>>>>>,>><<<33334<<3<4<:&-,&;<<<<,<<<32<<33<23<;<<>3",
">>:<,-;->;--,,,>;>;>>>>3,==2=26=====>===>>>>=>>>>>><>>>42242444444533533221<<<<>><<<><,<2343<3<><<<;=&;--<<3<<3<>,<<<333,,<>;;;2",
",,,--,>,;>>-,>,,=<>>,;=<4=4==2===<2<>>==>>>>>>><>>2<<><2>22444>44442553241><<<<<<<<233>>2,<<3>,<,,<,:&-;;,<3<<<<>><3,23<<,,;%>,<",
">--%-,,>;;;->;;,>><>>;<2=6====<42=====<2=#>>=><>>>>2<222444442222432432381><<<<1<,2<3<<>22<<<>,<,<3<;=<;;,,,,,;;>-;2,<<<<,%;<%%<",
",>%-;;,>,--=;--><<;;:;>>===2=3=====>>>>>=#>>>222<><<<<<<44442>4224422<23422<12223333<<>,233><,;<<<<3<-:;->,<,;>;->;<3,<<<%><<<->",
",%%,>;->,>;;;>;;,>;;;;,==4=====2==>22>=>==<=>22<2>>><<<22222222432332223224<1231<3332<,<<,<,>,;>>><2<,,;;;;3,>,>->,,,<<,<2>:-3>%",
",,<>,,>,,>>;$;;>>;,:;<;>4==46=====<2<==<>><>>2<2222>2<24>22>>>>2332<=32<22<<2254243<3<,<<<;,>,><<:,>>,-:<<,;>;,2>22,,,<,,,;,2>>%",
"<,2,,<,>>-;;-->,><;:-;>33=6==43=><===>>22<>>><>222<<<<><22>=>>>>332<222<2<<22<254342,<,,>&=,:=<,;:=,<,,<<<,>;;>>-,,,<<,-,;,:<>%<",
">;<>>;;><;;<<<1<:;===>>11><;=>>>:>>->>>11<<;<:>>>>><<<:<1<<=;>;:>33<>><<<22<2222,442>22<>=-<-&;;,,-;,<,<2223;&,;&&<<<1<<1<=>1=1<",
":<1<>;;>1;>>;><:;*;;#>;;;>>=+*>&=;-=;>>1<>>:>;:>>:><<<:><<1>*;;;=<3<>&>&242><42<2342233<>>---+&;;,-&;--<232>==;,;3><24131><=>>>>",
"<>::>;;;>>>>><>;>;=*;*;;*;;*&*;=;=*=>>>:;;;;;;><<<>;;*=;><1<;;>&&>324<4<2<;>=2223<432<2,>----$$-=;-&$&&:,2,><&&=;<,<41<,32<<>>&:",
"<=>;;;;>;;1<=;==*;;*;=*>;;&+;;;;>:><<<>>:><>>><>><1;;==;<<<<:>>==>34<<><>;&<22248<<<>342,-=--$--;,;;&=:,2<2>;&&&=,<,143<<===<--:",
"1:>;;;;>><>>;&=<>>>>;;;;;*==*&;;>;>1<>;:>>><<<1><<1>;>:->11<:>;>42<23<&&&&>&<<4234231141>$#$;&--;:;-;&;,,><>=&==&&,;;28<>,,><;:;",
"1<;>>><>>1:>>=>2<:;>;;>;=;>*&=*;:;>>;;>;>::>><>;;1>;=;>=;;<<:>><<<><2<>&&<<><2221133<<,,-#-----$;;=;&;3;,<>;=>,=;,;,,,2<,23;<<,-",
"<;><<1<><<:<<>><<:>;>;>;;;>;;;>>>;>:;:>;;>>>><<;>4<;;>;>=&->>><><5<<<<<&<<<<2>24<<84><,,$=,>-&-&;,-:&,2-,3=;====;<,>,=;,<,,,,,;;",
"<<;;<;>><<><22<>:>:;;;>;=;;**>:;>;;;;:;=;;<<<>>>11>>:=;;;=;;>;>>2<>><2<<2&<>>&25<>11=>=,==<<$;,-&=;-#:<;=>3=====*;<,>&:;,-->>>;-",
"11&:<<<>>2<2<22;;>>>>;*>;*;;>>;;;:;;:>;=>;;<><>14>:;=;===-;-><>>212>;;><<=<<&<42<2<,>;&=&;>41>>;&=:;&;<:=-><2===>><===3=;&-;;-&&",
"<1:<<13<2222<<2>=>;>;=>;<>>>;;;;><;;;<>;;><><<<1<>:<;:;-=;;;-;>><<2;&>>;=<<<25422122>;<=;*;13>4>=<,:-=-&&-=<=======<====;=&;-&&-",
"<<&&><1122252<2>>><<;;:;>:><:>>>>>;:;<<;;:><<;*-><><:-=;;;;;&;;><21>><2;<<2<>4>>,;>,;&,<,,<>&;&&;><=>;:---&-============-&;;&-;-",
"<:::><11<442222<>>:::>>;>>:><<;;<;=;;>:;>;;<;;=>>>-<-=;><<-==;;;211<>><2<<<<<22>><=&11>;>,;&&&;;,#:,,-=--&#&============-&---&$%",
"1<::>:<<<222111<><>>1:>=<>>><<<;:>;;;>>;,>>>,,,,;<<<;;-<<1>>>;;><<2>>1<&&&<2<<<<>2>;,,,,>&;,&&*;&&&<-;-:&-+&========#====#===##$",
"&:11<<512222121:><:<>1>><>>>:<<>>>;;;;:=;>>=;<,111>>:<=:><1<>>,;<<1>&>2>>>2><<<<24<>>13<,,3;;&&&-#;<&---=&O&=====<==##=#O#=#$&&-",
"*11:::<<21221<<;>>;;<<:<>><>><>;:>;;;;>:;;;>;><<14<>>>;<<>4<,<<;<<2>&;><<<<<32&4111;&,,,;,<,1& &&&,<&&-*&&&&===3=4===#=#oO==#=#&",
"<<::;;;<12122>1<><>;>1<:<:>><<<>:>>;=&;;;>>,,24<11<;;;:>>><1<<<;><2<222222<242&2,>>,=;&,;,;,<&XO#&-;&#&=-&&&===========o#===&#+O",
"<1*11,,111,,311,:;;>:11<><>><:><<<<&&;;;>:<<>1<<<<>>>;;&;>><>;,<2<><11444242<2;>>>><>5;>=;><,&o&#============>=>==2=#==#o#===##=",
"*1:*1**11,11:,1<;>=;><<<<:>:><<::><===-:<><<;>><<<;>>;<<2<>><,<<<<<<2442225<>>;;;;;<>51=,,>;;&o&#=#=>==>===============o#====###",
":11*,,11*11:;<1,;;>:;=;>;<<:>><>:;>>>>;<:>>:><<<2>><>212>><><<<2<<2><222254>>>;;#;=<<>>;&>,;;&&&#=##>==>>#>=#=>>2===#=####====##",
"*4**,1,11111>;<<::=>>;=>>;>2<<>>>;>;>-;:-><>-:><2<<<1221><23><<<<<<<<224452;>;===>=;<<<>=;,=>&&&#=====>>====#==>=====>====>#==#=",
",*;**::,<,,>;;1<>;=;5<;>;>>><<<>=:>:>;><>;>>><><1222<<<212<2<<2<<22<22<5454<=;=;;&&-=<>121<=>1&&==#===>>>=#=======>=>=####>=====",
"*,<**:::11<>;;33;;:;;>;;=;;;><<>;;;>;;>:<><<><<<222222<24122<22222422<<4254>>>>;-->;-<><222<1>1&=###>>>>=#>====>=<==>=####==>>=>",
"*:<::,,,11<,,;<;;;>=;;;<<>;<<1>>;;><>:;>>>:<<<<<2222222212422222<452222425222<<<1;>;=<,12222<&&&=###>>>>>=>=======<>>>#==#======",
";::::,1,,<,>;;,;;;;=>;;11<<:<<<<<<::<;;>>>>><<<<22222323422<2222<222<<2222<2<>>>,=;=;>444<>,><&&##=#>===>=>=========>>#=>===>==#",
";;:<:,<,;,;*;;;;>:>;<;>>>:11:;:<<::::;::<;:11<:<22222224542<<2<<<2222<<222222>;<,-;<==:<11<<>&&&#=>======#====>=====>==>=>>>>>==",
";;*;&**&*,>;<<;<:<<<<><>;<>::<:::<<<:;:<<::1<1<<<222423442<<<2<><24544<244222<>2<>>>;=&<1<<&1&&&#=>==#=####===>>2>22>======>>==>",
";;1,;,;&;<1,<<>31<11<<1<:<:1<<11<<<:<::<<:<<<<<<<2222422222<1<<><223422325222>><<<<;=->11>:&<>&>=>>===#===#===>=>>>22>>>>>=>>#>=",
">>;1&1,;<11,;,33:><:>>><>>:<::<:<::<:::::<:<<<1<2121222224<<<<<<<<224224<2<><<><<;;;;;><1,11<,<<>>>=>=======>=>===>>2>>>>>>>>>=>",
":,::;,;;,<<,,<,;:>>>>;=;=>;;*::<<:<1<*:<<<:<<<<<<><,<121<<<<4<><<<353<255<<<>>>><>>><=&><&1<<>>&<><==>===#=>>=>2>>>=2>>>>2>2>2>=",
"*;<:,;&;=<<<,,<3:>>>;;;><1=;:::<<<<<*<55<1:<<<1121><<,22<1<11<<<<253332222<2<<>><<<<-&&;21&><<>&>>>>>==#==#===>>>>22>>>>2>>>2>>>",
">;;;<,=;,,,<<<<<1>;;=>;>:;;;:::<<:<*;:1;<<:12211<==1,=2<=<><<<><222553345222<<>>;>;;&&&=&&&>><&>==>=>>=====#==>2===>>2>>>>>2>22>",
"-;;,,,,;,,,>><,,;;;;;>;;;=;=*:::<:::::;*<51221221,,=<<&&><>,<<<<<<2323432222<>2<;,;;&&&&>&22<&&&=>>=>>=>=====>>====>2>>>>>>>2>>2",
">;;:,;%;,:,<,,,,;--:-:;=&&&--->,1*:1*551*11111<1***:<:::&<<><<><2><4333422233<23<;;:&-<-;,::,&##===>>==>=#=>===>>>>22>>>>>>=>>>>",
";>;:<,:--;:;,,;:;=;=&-&=-&=<<;<<1::***88*11*5**1<**<::<<<<><<<<<,233333432244222<<;&=<>;=::-;@&@==>>==>========>>>>242>>>>=>>>>>",
";<,<:::-::,;;&&-&-:;=&&-:-&-,;;:**1***585**1115*****,;*:>>>>><<<3,<3<334433222,<<>-;33<&&&-&@&###==>=>>======>=>>>==>>>>>==>=>>>",
"-,;;;*;;-:,;&#;-;=,>;:;-&--:,**,***:****51*1*11*<***;;;:><<2<1<>,2<<<334323,<3;;<>;:<<<&&;;&#*#+==>>=>>====#=>>=>>=>>>>>>=>=>>=>",
"::**;:;;-;;--&,;-;,--:->>*;,**>,***::**1*151*111:,&&&;;<2<<<<<<<,222<2424<2332<,>><><<<,=:;&#&&&>=>>>><>=>==#>>>>2>>>>>>=>>>>>>>",
"::::::*:,;:,;&$&&&=-=;&-;*;,**:,1*:*1:1****1115*,&&&;;;,*><<<<><2<><<2242222<,>-:><><,,,<>,=&&&&##>>=>>======>>>>2=>==2>>>>>>>>2",
":,::**:1,:<,;,--&-;:==&-;;:<:::,1*1:*******1**11<::&&,;,<*<<<22<<2<2<<<>;<2,,>,,3533<>>>>;=--=&-==>>==>>#=>===>=>>=>==22>=>>>>>>",
",,::::::<:<,:;;-;;;=&;=-**,,<,:;*******1*1*5**1*<*;,*&&;>&<<<<>>==>><>,,,<>,%<,,343<,,<:;;;:>-:;==#>>>>>>=>>>>===>>>==2>>>>>>>=>",
"::%1:**:::114<,;;;;*&;;***:,:*,*:1**1**::::1,1::41*:>*<*,>><,*<<,<<,<,<<<>,,;,,-,,,-,<,%&&---&><>>=>=>>>>>>>>>>>>=2==><=>==>>=>=",
":<:,:*:*:1:<3,<;;,;*&*;*;;*:*,::*1*:1:****::1**,11<:><>><,<*<>*>,,;>;,<<2<<>22<<,,,-,%;-&&---&;->>>=>>>>>>=>>=>>>====>>=>=>>=>>>",
":::%*::*<:;:43,;&;&&&&;;*;:*:,::1****1*511*1:*14<,,*&>>>><><>>*<>>>,,<;,,>,->233>,<;,;-%&--&&&:->>=>>>2>>>>>>>>>=<>====<<=>>>>>>",
"1<<%*:;*;*,<;>,;&*&&&&*:::::::::*1:1*1*:**:*1**,:,<1,<<>**,>>>>>>>;;<<,,,,>>22,,,,,<>-;;&&-&&-<-==>=>22>=>>>>=>>>>>>>==>>>>2>>>>",
":,::::**;*->;>*:;;*&;;>;1:*::&**:**:*1***:4*::::<1<*<1<><><>>*<&;;&&;,<2<<,,33<,<,<4,;;;-*&&&=:-=>>>><>>=>2<>==>2======>>>>>>>>>",
"<<<%%%::-*-;;;--;&&;*;*;***:::*:1*1*1****:*4<,:,**,<,<<,>&><><>>,,&&;,<<<<<2,,>,3--3-%=%&&--=&-->>>>=<2>>2>><>>=>=======><=><<>>",
"%1:%*:::*@$:>>,-&&&;**::**:***:141*::**1***1<;-;1:,,*<**&&&*&*&&,,>&><,<<,<2<%,<,%->-=->&#&&-&&==<2><2<2>>>>>>>>><==#==>=>>>2<>2",
":%%<::*:*$*-,>>:;&&&:*:****:*****:1*:1*11***,>;,,*,,<>*>>>,,>&&&&=&&;<<>,,,->;,3<3;;;-=;&&=&-;;==22242===>>>>==><2===>==>>>><<><",
";-;:::;**;->;-&&&&oO&*;,*;*<::**11***,**1,**<<-;;,:,,;;;=;,;;=;>;&&;><<1<>==><<<<<::-;&=-=--&&:;;,<<-<,<;;;-#+========>=<<=<<<=2",
";:*:;*:*$&&-;&-;&&+&&&;**;**:****,*11*******;*--=:>,==;;>;;;;;;><,,1>114<<><<>;=-<,,--;-&&&&&-;;<<<,=<:<,&$#O+======<====>2==22=",
"-:**;*;:&$$&->--&&&&&&;;*:::*&***,:*********&&;*;,,>,,,=>,;;;;>=;;;;=><1<<>1<,&=;<;-,=;;&&&&&&;>,<,:=-,;-=$$$#=;=&=<=>=>==2<=2=2",
"<,:::**:*$---,;;&&&&&;*:,***&&***,*****@*,**&&;:<><<>,,;;,<>,>>=;=;>><<22<<1<=&;=-=-;=--&&&&-=,-,:;;<<,;-&#=$O#%&=&===>=<><=3=<<",
";:%-;----*-*;---&&>&&&&;,**&&******:****,*****:;,,;;;,,;;,;;,<>><,,,;,>22<<21>&>-:;=--:-&-&&--;:,<<;33,--=$&=#O#&&&&&o==,>;<22<<",
":%;:;;-**-;&-;&-&&&&*>,<,;1*&&********@*1**,15,:>,;;,<,>;;;,>,><,&;&&;><1<<,,;8<=;&--&--&&*-=-=;;;<<,<,;-&##$#O#&&#&=&==&=&&====",
";:;-;-=;;-;--&;;&*;&;&&&:&*,****,***O@@@**11:,1,;,><,>,,;;;;>>>>,>;,<,1121<><><>;;&;-;--&&=-,:=;:;<<,<,;;&&$$$#&&&oo##==;&=;=<<=",
"%;;--;;;---;-;-:;;;;;;;>,***&***,***O*X@******:*&;;:,;;,;-;;><,<1;;>>;>1<>>;><;=:;&=;:&&&*-=&:&:;=,<,--;;--&&&&#&&&&#&==,&=;=>=>",
":%----;;---->;;----;,;;,;*;&&&&;*:***@@@$*-$&-%%;>-;:;:;==,=,,>,<,>>>><44<,&<>>>;--&--$&&&-$$*;>=-;<>&#&====,=&##=======:&&;;**>",
";;%---=----&------;-;;;-;*&&;&&&@**:*@@o@$$*>;&%;>;>:=;=>=,,,,,,<<,<,3><<<><<<&<,---;#&&-;;-&&,:;-;><&&:2=====&#=========&;&;;;;",
":%%$$=$=-&--;;:>;------:;*&*&&&&*$@**@@@@%*--;;;;;=-;:-;=,,,,,,<>;>>>2<<<<>,<<,*&&$-&+$&$&-->;-;,,,;>==,=====%=&======#=;;>&*-;:",
";%;-&--$-$-->;>>;-;;;-*;&&&;**&&****@@@**$->>-;:>-=-;>=-=,=<,<<=>>=>>,><<<>;><&>-*;*;$$&$=;;;:%;,;<,:-&&==%====%========&&&&&*;:",
";%;;---&%---;;;;;-,;--;-::******%$**$$$$$$*;:;;;;;:>;-=;==><<<>>>==>>>><1,,<<<&&$-:-;-$&$----;-;;-;-:-&&#=#####====#=======#&==>",
";-%----;;-*;;;;;--;;-**-*-**&*&&@$*&$****&&*::;;;;;;;;-:>,,==2=><>=>>><><;,,>&&<%$-;,;**&&&-:,-;&&;%=;:o#%=########============>",
";%--%;-;;%%:,::;;;;&%-::********@$**$***;;**;,;;;>::;,-:>;==<=,><>,,>>,>,,,<::><;%-::-$%@$&-:,-;*-;-@,3-===##oo###==;%=====;;==>",
":;:;;;;;%:%::,:;:;-+@@$%*-::***:%%---%%%*---:,;;;,>:,<-;>>,=<2<,>=><<<,,1<11<1:&-%;;-*%-%;:$%------$-<<<==###o######%=====-;>;=,"
};
